<?xml version="1.0" encoding="UTF-8" standalone="no"?>
<!-- Created with Inkscape (http://www.inkscape.org/) -->

<svg
   width="380.20721"
   height="38.806309"
   viewBox="0 0 380.20721 38.806309"
   version="1.1"
   id="svg1"
   xmlns="http://www.w3.org/2000/svg"
   xmlns:svg="http://www.w3.org/2000/svg">
  <defs
     id="defs1" />
  <g
     id="g22"
     transform="translate(-130.97102,-586.92193)">
    <path
       d="m 133.10901,606.27855 q 3.05249,-1.39554 3.45063,-3.62841 v -10.79219 h -2.65432 q -1.85804,-0.32562 -1.85804,-2.00027 0,-1.67466 1.85804,-2.00028 h 14.86424 q 5.17595,-0.37215 7.69756,5.53565 2.58797,5.86127 2.52162,9.25709 0.39814,2.23287 3.45062,3.62841 -3.05248,1.39554 -3.45062,3.72145 0.0664,3.39582 -2.52162,9.30361 -2.52161,5.86128 -7.69756,5.48913 h -14.86424 q -1.85804,-0.32562 -1.85804,-2.00028 0,-1.67465 1.85804,-2.00027 h 2.65432 v -10.88523 q -0.39814,-2.23287 -3.45063,-3.62841 z m 15.52784,14.51364 q 1.52623,0.18607 3.05247,-3.861 1.59262,-4.04707 1.59262,-6.93119 -0.39817,-2.32591 -3.45065,-3.72145 3.05248,-1.39554 3.45065,-3.62841 0,-2.88412 -1.59262,-6.93119 -1.52624,-4.04707 -3.05247,-3.861 h -6.3704 v 10.79219 q 0.39815,2.23287 3.45064,3.62841 -3.05249,1.39554 -3.45064,3.62841 v 10.88523 z m 18.84573,-14.51364 q 3.05249,-1.39554 3.45064,-3.62841 v -10.79219 h -2.65433 q -1.85803,-0.32562 -1.85803,-2.00027 0,-1.67466 1.85803,-2.00028 h 13.00621 q 2.65433,-0.23259 5.30867,2.60501 v -1.34902 q 0.46449,-1.30251 2.8534,-1.30251 2.3889,0 2.8534,1.30251 v 10.14093 q -0.4645,1.30251 -2.8534,1.30251 -2.38891,0 -2.8534,-1.25599 l -0.13272,-1.11643 q -2.25618,-5.95431 -5.04323,-6.32646 h -4.77779 v 12.37381 h 9.55558 q 1.85803,0.32563 1.85803,2.09331 0.0664,1.76769 -1.72531,2.09331 h -9.6883 v 12.37381 h 4.77779 q 2.78705,-0.37215 5.04323,-6.32646 l 0.13272,-1.11643 q 0.46449,-1.25599 2.8534,-1.25599 2.3889,0 2.8534,1.30251 v 10.14094 q -0.4645,1.3025 -2.8534,1.3025 -2.38891,0 -2.8534,-1.3025 v -1.34903 q -2.65434,2.8376 -5.30867,2.60501 h -13.00621 q -1.85803,-0.32562 -1.85803,-2.00028 0,-1.67465 1.85803,-2.00027 h 2.65433 v -10.88523 q -0.39815,-2.23287 -3.45064,-3.62841 z m 39.28408,-14.4206 h -2.65432 q -1.85804,-0.32562 -1.85804,-2.00027 0,-1.67466 1.85804,-2.00028 h 16.58956 q 1.85803,0.32562 1.85803,2.00028 0,1.67465 -1.85803,2.00027 h -2.65433 l 2.25617,11.0713 q 0.92902,2.18635 4.24694,3.25627 -2.78706,1.67465 -2.72068,3.95403 l 2.18982,10.65264 h 2.65432 q 1.85804,0.32562 1.85804,2.00027 0,1.67466 -1.85804,2.00028 h -11.08183 q -1.79167,-0.32562 -1.79167,-2.00028 0,-1.67465 1.85804,-2.00027 h 2.65432 l -2.5216,-12.37381 h -6.76854 l -2.52162,12.37381 h 2.65433 q 1.85803,0.32562 1.85803,2.00027 0,1.67466 -1.79168,2.00028 H 198.1401 q -1.85803,-0.32562 -1.85803,-2.00028 0,-1.67465 1.85803,-2.00027 h 2.65432 l 2.18982,-10.65264 q 0.0664,-2.27938 -2.72069,-3.95403 3.31793,-1.06992 4.18059,-3.25627 z m 5.64047,0.32563 -2.45527,12.04818 h 4.91052 z m 21.16829,14.09497 q 3.05246,-1.39554 3.45062,-3.62841 v -10.79219 h -2.65434 q -1.85803,-0.32562 -1.85803,-2.00027 0,-1.67466 1.85803,-2.00028 h 14.86425 q 5.17593,-0.37215 7.69755,5.53565 2.58797,5.86127 2.52162,9.25709 0.39815,2.23287 3.45062,3.62841 -3.05247,1.39554 -3.45062,3.72145 0.0664,3.39582 -2.52162,9.30361 -2.52162,5.86128 -7.69755,5.48913 H 234.3717 q -1.85803,-0.32562 -1.85803,-2.00028 0,-1.67465 1.85803,-2.00027 h 2.65434 v -10.88523 q -0.39816,-2.23287 -3.45062,-3.62841 z m 15.52782,14.51364 q 1.52623,0.18607 3.05247,-3.861 1.59259,-4.04707 1.59259,-6.93119 -0.39814,-2.32591 -3.45062,-3.72145 3.05248,-1.39554 3.45062,-3.62841 0,-2.88412 -1.59259,-6.93119 -1.52624,-4.04707 -3.05247,-3.861 h -6.37041 v 10.79219 q 0.39816,2.23287 3.45063,3.62841 -3.05247,1.39554 -3.45063,3.62841 v 10.88523 z m 46.25168,0 q 1.52624,0.18607 3.05249,-3.861 Q 300,612.88412 300,610 q -0.39815,-2.32591 -3.45063,-3.72145 3.05248,-1.39554 3.45063,-3.62841 0,-2.88412 -1.59259,-6.93119 -1.52625,-4.04707 -3.05249,-3.861 h -1.59259 q -1.52624,-0.18607 -3.11883,3.861 -1.52625,4.04707 -1.52625,6.93119 0.39815,2.23287 3.45062,3.62841 -3.05247,1.39554 -3.45062,3.72145 0,2.88412 1.52625,6.93119 1.59259,4.04707 3.11883,3.861 z m 0.13272,-32.93479 q 5.17594,-0.37215 7.69757,5.53565 2.58795,5.86127 2.5216,9.25709 0.39816,2.23287 3.45063,3.62841 -3.05247,1.39554 -3.45063,3.72145 0.0664,3.39582 -2.5216,9.30361 -2.52163,5.86128 -7.69757,5.48913 h -1.85802 q -5.17596,0.37215 -7.76392,-5.48913 -2.52162,-5.90779 -2.45527,-9.30361 -0.39814,-2.32591 -3.45062,-3.72145 3.05248,-1.39554 3.45062,-3.62841 -0.0664,-3.39582 2.45527,-9.25709 2.58796,-5.9078 7.76392,-5.53565 z m 33.04641,16.37436 q 1.79167,0.0465 3.98149,-1.11644 2.18981,-1.16295 1.85803,-2.04679 0.13273,-0.93036 -1.45988,-5.16351 -1.52623,-4.23314 -3.05249,-4.04707 h -6.5031 v 12.37381 z m -2.52162,16.56043 q 1.85803,0.32562 1.85803,2.00027 0,1.67466 -1.85803,2.00028 h -11.01547 q -1.85802,-0.32562 -1.85802,-2.00028 0,-1.67465 1.85802,-2.00027 h 2.65434 v -10.88523 q -0.39815,-2.23287 -3.45063,-3.62841 3.05248,-1.39554 3.45063,-3.62841 v -10.79219 h -2.65434 q -1.85802,-0.32562 -1.85802,-2.00027 0,-1.67466 1.85802,-2.00028 h 14.99697 q 5.17594,-0.37215 7.63119,5.34958 2.45527,5.72172 2.58798,8.23369 -0.26544,1.62814 -2.65433,3.44234 -2.3889,1.72117 -4.97686,2.65153 1.92439,2.18635 6.0386,2.27938 -2.3889,2.41895 -1.32718,4.55878 l 3.1852,6.41949 h 2.65433 q 1.85803,0.32562 1.85803,2.00027 0,1.67466 -1.85803,2.00028 h -11.08183 q -1.79166,-0.32562 -1.79166,-2.00028 0,-1.67465 1.85803,-2.00027 h 2.65433 l -2.45526,-4.97743 q -1.72532,-1.72117 -5.17594,-2.0468 1.79166,-2.04679 0.99537,-4.09359 l -0.72994,-1.25599 h -4.04786 v 12.37381 z m 46.51714,-28.93424 h -2.65432 q -1.85805,-0.32562 -1.85805,-2.00027 0,-1.67466 1.85805,-2.00028 h 16.58954 q 1.85804,0.32562 1.85804,2.00028 0,1.67465 -1.85804,2.00027 h -2.65433 l 2.25618,11.0713 q 0.92902,2.18635 4.24693,3.25627 -2.78705,1.67465 -2.72068,3.95403 l 2.18981,10.65264 h 2.65435 q 1.85802,0.32562 1.85802,2.00027 0,1.67466 -1.85802,2.00028 h -11.08184 q -1.79167,-0.32562 -1.79167,-2.00028 0,-1.67465 1.85802,-2.00027 h 2.65433 l -2.52161,-12.37381 h -6.76854 l -2.52162,12.37381 h 2.65433 q 1.85804,0.32562 1.85804,2.00027 0,1.67466 -1.79166,2.00028 H 363.903 q -1.85804,-0.32562 -1.85804,-2.00028 0,-1.67465 1.85804,-2.00027 h 2.65432 l 2.18982,-10.65264 q 0.0664,-2.27938 -2.72069,-3.95403 3.31792,-1.06992 4.18058,-3.25627 z m 5.64045,0.32563 -2.45526,12.04818 h 4.9105 z m 21.16828,14.18801 q 3.05248,-1.39554 3.45062,-3.62841 v -10.88523 h -2.65433 q -1.85803,-0.32562 -1.85803,-2.00027 0,-1.67466 1.85803,-2.00028 h 11.08183 q 1.79168,0.32562 1.79168,2.00028 0,1.67465 -1.85803,2.00027 h -2.65434 v 10.88523 q 0.39816,2.23287 3.45063,3.62841 -3.05247,1.39554 -3.45063,3.62841 v 10.79219 h 4.7778 q 2.78704,-0.37215 5.04323,-6.32646 l 0.1327,-1.11643 q 0.46452,-1.25599 2.85341,-1.25599 2.3889,0 2.85341,1.30251 v 10.14094 q -0.46451,1.3025 -2.85341,1.3025 -2.38889,0 -2.85341,-1.3025 v -1.34903 q -2.65432,2.8376 -5.30865,2.60501 h -13.00622 q -1.85803,-0.32562 -1.85803,-2.00028 0,-1.67465 1.85803,-2.00027 h 2.65433 V 610 q -0.39814,-2.23287 -3.45062,-3.62841 z m 31.18836,-0.093 q 3.05249,-1.39554 3.45063,-3.62841 v -10.7922 h -2.65432 q -1.85803,-0.32562 -1.85803,-2.00027 0,-1.67466 1.85803,-2.00028 h 11.08183 q 1.79167,0.32562 1.79167,2.00028 0,1.67465 -1.85802,2.00027 h -2.65435 v 10.79219 q 0.39816,2.23287 3.45063,3.62841 -3.05247,1.39554 -3.45063,3.62841 v 10.88523 h 2.65435 q 1.85802,0.32562 1.85802,2.00027 0,1.67466 -1.79167,2.00028 h -11.08183 q -1.85803,-0.32562 -1.85803,-2.00028 0,-1.67465 1.85803,-2.00027 h 2.65432 v -10.88523 q -0.39814,-2.23287 -3.45063,-3.62841 z m 28.1359,14.51363 -2.38889,-11.44344 q -0.86265,-2.13983 -4.11421,-3.16323 2.65433,-1.58161 2.72069,-3.72144 l -2.18983,-10.60612 h -2.65433 q -1.85802,-0.32563 -1.85802,-2.00028 0,-1.67465 1.85802,-2.00027 h 11.08183 q 1.79167,0.32562 1.79167,2.00027 0,1.67465 -1.85803,2.00028 h -2.65433 l 2.12347,10.60612 q 0.7963,2.23286 2.91976,2.79108 -1.52623,1.16295 -1.72532,2.79109 l 2.58798,12.42032 2.58796,-12.42032 q -0.19907,-1.62814 -1.72531,-2.79109 2.12347,-0.55822 2.91976,-2.79108 l 2.12347,-10.60612 h -2.65433 q -1.85803,-0.32563 -1.85803,-2.00028 0,-1.67465 1.79168,-2.00027 h 11.08182 q 1.85802,0.32562 1.85802,2.00027 0,1.67465 -1.85802,2.00028 h -2.65433 l -2.18982,10.60612 q 0.0664,2.13983 2.72069,3.72144 -3.25156,1.0234 -4.11422,3.16323 l -2.38889,11.44344 h 2.65433 q 1.85803,0.32563 1.85803,2.00028 0,1.67465 -1.85803,2.00028 h -16.58957 q -1.85802,-0.32563 -1.85802,-2.00028 0,-1.67465 1.85802,-2.00028 z m 26.80874,-14.51363 q 3.05248,-1.39554 3.45062,-3.62841 v -10.7922 h -2.65432 q -1.85804,-0.32562 -1.85804,-2.00027 0,-1.67466 1.85804,-2.00028 h 13.00621 q 2.65432,-0.23259 5.30866,2.60501 v -1.34902 q 0.46451,-1.30251 2.85341,-1.30251 2.38889,0 2.8534,1.30251 v 10.14093 q -0.46451,1.30251 -2.8534,1.30251 -2.3889,0 -2.85341,-1.25599 l -0.13272,-1.11643 q -2.25618,-5.95431 -5.04322,-6.32646 h -4.77779 v 12.37381 h 9.55558 q 1.85804,0.32563 1.85804,2.09331 0.0664,1.76769 -1.72532,2.09331 h -9.6883 v 12.37381 h 4.77779 q 2.78704,-0.37215 5.04322,-6.32646 l 0.13272,-1.11643 q 0.46451,-1.25599 2.85341,-1.25599 2.38889,0 2.8534,1.30251 v 10.14094 q -0.46451,1.3025 -2.8534,1.3025 -2.3889,0 -2.85341,-1.3025 v -1.34903 q -2.65434,2.8376 -5.30866,2.60501 H 486.2676 q -1.85804,-0.32562 -1.85804,-2.00028 0,-1.67465 1.85804,-2.00027 h 2.65432 v -10.88523 q -0.39814,-2.23287 -3.45062,-3.62841 z"
       id="text23"
       style="font-size:64px;font-family:'Yatsurano Western';-inkscape-font-specification:'Yatsurano Western, Normal';white-space:pre;fill:#c3e372;fill-opacity:0.542623;stroke:#000000;stroke-width:1.7779"
       aria-label="Dead Or ALIVE" />
  </g>
</svg>
