<?xml version="1.0" encoding="UTF-8" standalone="no"?>
<!-- Created with Inkscape (http://www.inkscape.org/) -->

<svg
   width="459.92596"
   height="81.429352"
   viewBox="0 0 459.92596 81.429352"
   version="1.1"
   id="svg1"
   xmlns="http://www.w3.org/2000/svg"
   xmlns:svg="http://www.w3.org/2000/svg">
  <defs
     id="defs1" />
  <g
     id="layer10"
     style="display:inline"
     transform="translate(-90.127518,-10.085671)">
    <path
       d="M 113.83321,81.508385 108.7546,57.218424 q -1.83393,-4.542027 -8.74647,-6.7143 5.64288,-3.35715 5.78396,-7.899174 L 101.1367,20.092298 h -5.642885 q -3.950022,-0.691175 -3.950022,-4.245806 0,-3.554629 3.950022,-4.245807 h 23.559055 q 3.80895,0.691178 3.80895,4.245807 0,3.554631 -3.95001,4.245806 h -5.64289 l 4.51431,22.512652 q 1.26964,3.850848 7.61791,5.529421 -4.93754,2.764711 -5.07861,6.911778 l 5.50182,25.771065 12.55543,-60.724916 h -5.64289 q -3.95003,-0.691175 -3.95003,-4.245806 0,-3.554629 3.80895,-4.245807 h 23.55907 q 3.95003,0.691178 3.95003,4.245807 0,3.554631 -3.95003,4.245806 h -5.64289 l 12.55543,60.724916 5.50182,-25.771065 q -0.14107,-4.147067 -5.07861,-6.911778 6.34826,-1.678573 7.61791,-5.529421 l 4.51431,-22.512652 h -5.6429 q -3.95002,-0.691175 -3.95002,-4.245806 0,-3.554629 3.80896,-4.245807 h 23.55907 q 3.95002,0.691178 3.95002,4.245807 0,3.554631 -3.95002,4.245806 h -5.6429 l -4.65537,22.512652 q 0.14106,4.542024 5.78394,7.899174 -6.91253,2.172273 -8.74647,6.7143 l -5.0786,24.289961 h 5.64289 q 3.95002,0.691177 3.95002,4.245815 0,3.554621 -3.95002,4.2458 H 160.6692 q -8.32327,0.296215 -9.59292,-8.491615 l -6.63041,-32.090397 -6.63039,32.090397 Q 136.54584,90.296215 128.22257,90 h -20.03225 q -3.95002,-0.691179 -3.95002,-4.2458 0,-3.554638 3.95002,-4.245815 z M 219.63739,20.092298 h -5.64289 q -3.95003,-0.691175 -3.95003,-4.245806 0,-3.554629 3.95003,-4.245807 h 35.26805 q 3.95003,0.691178 3.95003,4.245807 0,3.554631 -3.95003,4.245806 h -5.64289 l 4.79647,23.500049 q 1.97501,4.640765 9.02862,6.911777 -5.92503,3.554628 -5.78396,8.392874 l 4.65537,22.611387 h 5.6429 q 3.95003,0.691177 3.95003,4.245815 0,3.554621 -3.95003,4.2458 h -23.55907 q -3.80896,-0.691179 -3.80896,-4.2458 0,-3.554638 3.95003,-4.245815 h 5.6429 L 238.82321,55.24363 h -14.38936 l -5.36075,26.264755 h 5.64289 q 3.95001,0.691177 3.95001,4.245815 0,3.554621 -3.80895,4.2458 H 201.298 q -3.95002,-0.691179 -3.95002,-4.2458 0,-3.554638 3.95002,-4.245815 h 5.64288 l 4.65539,-22.611387 q 0.14108,-4.838246 -5.78396,-8.392874 7.05361,-2.271012 8.88756,-6.911777 z m 11.99113,0.691179 -5.21966,25.573579 h 10.43934 z m 45.00206,29.918127 q 6.48932,-2.96219 7.33575,-7.701697 V 20.092298 h -5.64288 q -3.95002,-0.691175 -3.95002,-4.245806 0,-3.554629 3.95002,-4.245807 h 18.62153 q 6.77147,0 7.90004,3.35715 l 16.08224,61.811047 v -22.51265 q -1.69286,-2.369752 -4.79646,-3.554628 3.1036,-1.184876 4.79646,-3.55463 V 20.092298 h -5.64289 q -3.95001,-0.691175 -3.95001,-4.245806 0,-3.554629 3.80893,-4.245807 h 23.55908 q 3.95001,0.691178 3.95001,4.245807 0,3.554631 -3.95001,4.245806 h -5.64289 v 23.10509 q 0.84642,4.739504 7.33576,7.701694 -6.48934,2.962192 -7.33576,7.701698 v 22.907605 h 5.64289 q 3.95001,0.691177 3.95001,4.245815 0,3.554621 -3.95001,4.2458 h -18.62154 q -6.77146,0 -7.90005,-3.357154 L 296.09855,24.831805 v 22.315169 q 1.69286,2.369754 4.79645,3.55463 -3.10359,1.184876 -4.79645,3.554628 v 27.252153 h 5.64288 q 3.95003,0.691177 3.95003,4.245815 0,3.554621 -3.80895,4.2458 h -23.55906 q -3.95002,-0.691179 -3.95002,-4.2458 0,-3.554638 3.95002,-4.245815 h 5.64288 V 58.4033 q -0.84643,-4.739504 -7.33575,-7.701696 z m 89.15765,0 q 6.48932,-2.96219 7.33576,-7.701697 V 21.573395 q -4.93753,1.974793 -6.77147,11.947502 l -0.28215,2.369754 q -0.98751,2.66597 -6.0661,2.66597 -5.0786,0 -6.0661,-2.764711 V 14.266658 q 0.9875,-2.764712 6.0661,-2.764712 5.07859,0 6.0661,2.764712 v 2.86345 q 4.51431,-5.825642 11.00363,-5.529423 h 4.23218 q 6.48932,-0.296219 11.00363,5.529423 v -2.86345 q 0.98751,-2.764712 6.0661,-2.764712 5.07861,0 6.06611,2.764712 V 35.79191 q -0.9875,2.764711 -6.06611,2.764711 -5.07859,0 -6.0661,-2.66597 l -0.28214,-2.369754 q -1.83394,-9.972709 -6.77147,-11.947502 v 21.426512 q 0.84645,4.739507 7.33577,7.701697 -6.48932,2.962192 -7.33577,7.701696 v 23.105085 h 5.64289 q 3.95002,0.691177 3.95002,4.245815 0,3.554621 -3.95002,4.2458 h -23.41798 q -3.95004,-0.691179 -3.95004,-4.2458 0,-3.554638 3.95004,-4.245815 h 5.64288 V 58.4033 q -0.84644,-4.739504 -7.33576,-7.701696 z m 52.19673,0 q 6.48932,-2.96219 7.33576,-7.701697 V 20.092298 h -5.64289 q -3.95004,-0.691175 -3.95004,-4.245806 0,-3.554629 3.95004,-4.245807 h 27.65015 q 5.6429,-0.493698 11.28578,5.529423 v -2.86345 q 0.9875,-2.764712 6.06611,-2.764712 5.0786,0 6.06611,2.764712 V 35.79191 q -0.98751,2.764711 -6.06611,2.764711 -5.07861,0 -6.06611,-2.66597 l -0.28215,-2.369754 Q 453.53517,20.882216 447.61013,20.092298 h -10.15721 v 26.264758 h 20.31442 q 3.95001,0.691179 3.95001,4.443287 0.14107,3.752108 -3.66788,4.443287 h -20.59655 v 26.264755 h 10.15721 q 5.92504,-0.789912 10.72148,-13.428594 l 0.28215,-2.369754 q 0.9875,-2.665972 6.06611,-2.665972 5.0786,0 6.06611,2.764713 v 21.525256 q -0.98751,2.764716 -6.06611,2.764716 -5.07861,0 -6.06611,-2.764716 V 84.470576 Q 452.97088,90.493706 447.32798,90 h -27.65015 q -3.95004,-0.691179 -3.95004,-4.2458 0,-3.554638 3.95004,-4.245815 h 5.64289 V 58.4033 q -0.84644,-4.739504 -7.33576,-7.701696 z m 66.30396,0 q 6.48932,-2.96219 7.33575,-7.701697 V 20.092298 h -5.64289 q -3.95003,-0.691175 -3.95003,-4.245806 0,-3.554629 3.95003,-4.245807 h 31.60018 q 11.00364,-0.789917 16.36439,11.750023 5.5018,12.441202 5.36074,19.649199 0.84643,4.739507 7.33576,7.701697 -6.48933,2.962192 -7.33576,7.899176 0.14106,7.207998 -5.36074,19.747938 Q 528.5856,90.789921 517.58196,90 h -31.60018 q -3.95003,-0.691179 -3.95003,-4.2458 0,-3.554638 3.95003,-4.245815 h 5.64289 V 58.4033 q -0.84643,-4.739504 -7.33575,-7.701696 z m 33.0109,30.806781 q 3.24466,0.394961 6.48932,-8.195392 3.38574,-8.590352 3.38574,-14.712213 -0.84643,-4.936984 -7.33575,-7.899176 6.48932,-2.96219 7.33575,-7.701697 0,-6.12186 -3.38574,-14.712213 -3.24466,-8.590352 -6.48932,-8.195396 h -13.54294 v 22.907609 q 0.84643,4.739507 7.33576,7.701697 -6.48933,2.962192 -7.33576,7.701696 v 23.105085 z"
       id="text22"
       style="font-size:127.846px;font-family:'Yatsurano Western';-inkscape-font-specification:'Yatsurano Western, Normal';fill:#c3e372;fill-opacity:0.542623;stroke:#000000;stroke-width:2.83255"
       aria-label="Wanted" />
  </g>
</svg>
